<svg xmlns="http://www.w3.org/2000/svg" width="350" height="160" viewBox="0 0 350 160" role="img" aria-label="Gantt chart" font-family="sans-serif" font-size="12"><title>Gantt chart</title><desc>Task schedule with progress bars and dependency arrows</desc><rect x="120" y="0" width="230" height="30" fill="#f3f4f6"/><line x1="120" y1="30" x2="120" y2="160" stroke="#e5e7eb" stroke-width="1"/><text x="120" y="19" fill="#6b7280" font-size="11">6/1</text><line x1="330" y1="30" x2="330" y2="160" stroke="#e5e7eb" stroke-width="1"/><text x="330" y="19" fill="#6b7280" font-size="11">6/8</text><g data-task-id="task-1"><title>Design: 2026-06-01 – 2026-06-04 (100%)</title><rect class="bar-bg" x="120" y="40" width="90" height="20" rx="4" fill="#d1d5db"/><rect class="bar-progress bar-tier-done" x="120" y="40" width="90" height="20" rx="4" fill="#22c55e"/><text x="165" y="50" text-anchor="middle" fill="#ffffff" font-size="11" font-weight="600" dominant-baseline="middle">100%</text><text x="116" y="50" text-anchor="end" dominant-baseline="middle">Design</text></g><g data-task-id="task-2"><title>Build: 2026-06-04 – 2026-06-08 (50%)</title><rect class="bar-bg" x="210" y="80" width="120" height="20" rx="4" fill="#d1d5db"/><rect class="bar-progress bar-tier-mid" x="210" y="80" width="60" height="20" rx="4" fill="#6366f1"/><text x="270" y="90" text-anchor="middle" fill="#ffffff" font-size="11" font-weight="600" dominant-baseline="middle">50%</text><text x="116" y="90" text-anchor="end" dominant-baseline="middle">Build</text></g><path d="M 155 60 V 86 a 4 4 0 0 0 4 4 L 197 90 m -4 -4 l 4 4 l -4 4" fill="none" stroke="#9ca3af" stroke-width="1.5" stroke-linecap="round" stroke-linejoin="round"/><line x1="180" y1="0" x2="180" y2="160" stroke="#f59e0b" stroke-width="2" stroke-dasharray="4,3"/><polyline class="progress-status-line" points="180,30 210,50 270,90 180,110" fill="none" stroke="#ef4444" stroke-width="2" stroke-dasharray="6,3"/><g class="progress-line-legend" aria-hidden="true"><line x1="128" y1="134" x2="156" y2="134" stroke="#ef4444" stroke-width="2" stroke-dasharray="6,3"/><text x="162" y="138" fill="#6b7280" font-size="10" dominant-baseline="middle">進捗ステータスライン（各タスクの完了位置を結ぶ）</text></g><g class="bar-tier-legend" aria-hidden="true"><rect x="128" y="145" width="10" height="10" rx="2" fill="#d1d5db"/><text x="140" y="153" fill="#6b7280" font-size="9" dominant-baseline="middle">未達</text><rect x="208" y="145" width="10" height="10" rx="2" fill="#f59e0b"/><text x="220" y="153" fill="#6b7280" font-size="9" dominant-baseline="middle">低</text><rect x="261" y="145" width="10" height="10" rx="2" fill="#6366f1"/><text x="273" y="153" fill="#6b7280" font-size="9" dominant-baseline="middle">中</text><rect x="314" y="145" width="10" height="10" rx="2" fill="#0ea5e9"/><text x="326" y="153" fill="#6b7280" font-size="9" dominant-baseline="middle">高</text><rect x="367" y="145" width="10" height="10" rx="2" fill="#22c55e"/><text x="379" y="153" fill="#6b7280" font-size="9" dominant-baseline="middle">完了</text></g></svg>